<svg xmlns="http://www.w3.org/2000/svg" viewBox="0 0 1200 675" role="img" aria-label="Meta-análisis sobre hipertrofia del glúteo mayor">
  <defs>
    <linearGradient id="bg" x1="0" y1="0" x2="1" y2="1">
      <stop offset="0" stop-color="#141433"/>
      <stop offset="1" stop-color="#0B0B1A"/>
    </linearGradient>
    <linearGradient id="blue" x1="0" y1="1" x2="0" y2="0">
      <stop offset="0" stop-color="#1D4ED8"/>
      <stop offset="1" stop-color="#6f8ff0"/>
    </linearGradient>
    <linearGradient id="gold" x1="0" y1="0" x2="1" y2="1">
      <stop offset="0" stop-color="#f2d68a"/>
      <stop offset="1" stop-color="#9A7A28"/>
    </linearGradient>
    <radialGradient id="glow" cx="0.75" cy="0.65" r="0.6">
      <stop offset="0" stop-color="#1D4ED8" stop-opacity="0.4"/>
      <stop offset="1" stop-color="#1D4ED8" stop-opacity="0"/>
    </radialGradient>
  </defs>
  <rect width="1200" height="675" fill="url(#bg)"/>
  <rect width="1200" height="675" fill="url(#glow)"/>
  <rect x="64" y="60" width="220" height="52" rx="26" fill="#1D4ED8" opacity="0.16"/>
  <text x="174" y="94" text-anchor="middle" font-family="Inter, Arial, sans-serif" font-size="24" font-weight="700" letter-spacing="2" fill="#9fb4f7">HIPERTROFIA</text>

  <g transform="translate(640,130)">
    <line x1="200" y1="0" x2="200" y2="330" stroke="#2a2f55" stroke-width="4" stroke-dasharray="10 10"/>
    <line x1="0" y1="368" x2="460" y2="368" stroke="#2a2f55" stroke-width="4"/>

    <g stroke="#6f8ff0" stroke-width="5" stroke-linecap="round">
      <line x1="150" y1="40"  x2="320" y2="40"/>
      <line x1="185" y1="100" x2="360" y2="100"/>
      <line x1="130" y1="160" x2="300" y2="160"/>
      <line x1="205" y1="220" x2="395" y2="220"/>
    </g>
    <g fill="url(#blue)">
      <rect x="222" y="24"  width="32" height="32" rx="5"/>
      <rect x="256" y="84"  width="26" height="26" rx="5"/>
      <rect x="196" y="142" width="36" height="36" rx="5"/>
      <rect x="284" y="206" width="28" height="28" rx="5"/>
    </g>

    <path d="M198,300 L268,278 L338,300 L268,322 Z" fill="url(#gold)"/>
  </g>

  <text x="64" y="470" font-family="Inter, Arial, sans-serif" font-size="58" font-weight="800" fill="#E8E8F0">Glúteo mayor</text>
  <text x="64" y="540" font-family="Inter, Arial, sans-serif" font-size="58" font-weight="800" fill="url(#gold)">qué dice la evidencia</text>

  <g transform="translate(1090,585)" opacity="0.9">
    <text font-family="Georgia, serif" font-size="46" font-weight="700" fill="url(#gold)">C</text>
    <text x="26" font-family="Georgia, serif" font-size="46" font-weight="700" fill="url(#blue)">C</text>
  </g>
</svg>
